<svg width="202" height="224" viewBox="0 0 202 224" fill="none" xmlns="http://www.w3.org/2000/svg">
<path d="M93.8922 54.8895C94.0378 54.8902 94.1797 54.8441 94.2971 54.7579C94.4144 54.6717 94.5009 54.5501 94.5439 54.411C94.5815 53.9691 94.4676 53.5276 94.2209 53.1591C93.946 52.7706 93.6359 52.4922 93.127 52.7894C92.3864 53.2223 93.0498 54.8895 93.8922 54.8895Z" fill="#202020"/>
<path d="M95.7501 52.8737C96.5106 53.8266 97.363 54.7025 98.2948 55.4886C97.3261 56.0409 96.9224 56.1906 96.9201 56.5767C96.9267 56.7019 96.9748 56.8213 97.057 56.916C97.1263 56.978 97.2103 57.0213 97.301 57.0418C97.3917 57.0623 97.4861 57.0593 97.5753 57.033C98.115 56.7901 98.6305 56.4967 99.115 56.1567C99.2178 56.0864 99.3018 55.9919 99.3595 55.8815C99.4172 55.7712 99.447 55.6483 99.4461 55.5237C99.4368 55.0827 99.0261 54.782 98.8073 54.624C97.9719 53.8974 97.1962 53.0621 96.3503 52.2501C96.2453 52.1754 96.12 52.1346 95.9911 52.1331C95.9047 52.1331 95.8204 52.1604 95.7505 52.2112C95.6805 52.262 95.6284 52.3336 95.6016 52.4159C95.5749 52.4981 95.5748 52.5866 95.6015 52.6689C95.6282 52.7511 95.6802 52.8228 95.7501 52.8737Z" fill="#202020"/>
<path d="M98.2784 56.7591C97.7594 57.0421 97.1744 57.1819 96.5835 57.1643C95.9926 57.1466 95.417 56.972 94.9159 56.6584C94.9244 56.5897 94.9175 56.5199 94.8958 56.4541C94.874 56.3884 94.838 56.3282 94.7902 56.2781C94.7424 56.2279 94.684 56.189 94.6194 56.1642C94.5547 56.1393 94.4853 56.1291 94.4163 56.1343C94.1577 56.1343 94.0653 56.2642 93.5657 56.7029C93.5002 56.7632 93.4536 56.8414 93.4318 56.9277C93.4099 57.014 93.4136 57.1049 93.4426 57.1891C93.4715 57.2734 93.5243 57.3474 93.5946 57.4021C93.6648 57.4569 93.7495 57.4899 93.8383 57.4973C94.2244 59.8584 96.4918 60.6961 97.9181 59.3916C98.2855 58.9622 97.8151 58.2754 97.1927 58.6896C96.9822 58.8878 96.7079 59.0043 96.4191 59.018C96.1303 59.0318 95.8462 58.9418 95.6179 58.7644C95.265 58.4702 95.0069 58.0782 94.8761 57.6377C96.5936 58.4123 98.5978 57.7992 98.8459 57.3055C98.8877 57.2268 98.9028 57.1367 98.8889 57.0488C98.8749 56.9608 98.8326 56.8798 98.7685 56.818C98.7043 56.7562 98.6218 56.717 98.5333 56.7064C98.4449 56.6958 98.3554 56.7143 98.2784 56.7591Z" fill="#202020"/>
<path d="M93.1072 51.9153C93.8794 51.8393 93.8677 51.0168 93.381 50.9325C92.9711 50.9432 92.5737 51.0757 92.2392 51.313C91.9048 51.5503 91.6486 51.8818 91.5032 52.2652C91.4768 52.3375 91.4702 52.4155 91.4842 52.4912C91.4983 52.5669 91.5323 52.6374 91.5828 52.6955C91.6334 52.7536 91.6985 52.797 91.7716 52.8213C91.8446 52.8457 91.9228 52.8499 91.9981 52.8338C92.3151 52.7601 92.2169 52.4828 92.7375 52.1142C92.8515 52.0319 92.9758 51.9651 93.1072 51.9153Z" fill="#202020"/>
<path d="M39.4779 90.9721C39.9541 90.675 39.4861 89.8372 38.9935 90.1426C36.6301 91.6191 20.7883 101.444 15.2975 105.002C15.196 105.08 15.1277 105.194 15.1063 105.32C15.0849 105.447 15.1119 105.577 15.182 105.684C15.2521 105.792 15.3601 105.869 15.4845 105.9C15.6089 105.931 15.7406 105.915 15.8533 105.853C23.78 101.091 31.5827 95.9552 39.4779 90.9721Z" fill="#202020"/>
<path d="M30.5367 66.6771C30.5967 66.6804 30.6566 66.6701 30.7119 66.6469C30.7673 66.6237 30.8166 66.5882 30.8563 66.5431C30.8959 66.4981 30.9248 66.4446 30.9408 66.3868C30.9568 66.3289 30.9595 66.2682 30.9486 66.2091C30.9568 66.1532 30.9533 66.0963 30.9384 66.0418C30.9235 65.9873 30.8975 65.9364 30.862 65.8925C30.8265 65.8485 30.7823 65.8124 30.7321 65.7863C30.682 65.7603 30.627 65.7449 30.5707 65.7412C20.6758 65.1956 10.754 65.3939 0.888924 66.3343C0.782961 66.3495 0.685794 66.4017 0.614666 66.4817C0.543538 66.5617 0.503049 66.6643 0.500385 66.7713C0.49772 66.8783 0.533052 66.9828 0.60011 67.0662C0.667168 67.1497 0.761617 67.2066 0.866694 67.2271C0.866694 67.2271 29.5492 66.6643 30.5367 66.6771Z" fill="#202020"/>
<path d="M33.5529 26.6175C33.6104 26.6662 33.6779 26.7018 33.7506 26.7217C33.8232 26.7415 33.8994 26.7452 33.9737 26.7325C34.0479 26.7198 34.1185 26.691 34.1804 26.6481C34.2424 26.6052 34.2942 26.5492 34.3322 26.4841C34.366 26.3944 34.3752 26.2973 34.3588 26.2028C34.3423 26.1084 34.3008 26.0201 34.2386 25.9471C30.2149 21.7339 25.8403 17.4634 20.8783 12.9086C20.8317 12.8656 20.7758 12.834 20.7149 12.8164C20.654 12.7987 20.5898 12.7954 20.5274 12.8067C20.465 12.8181 20.4061 12.8437 20.3554 12.8817C20.3046 12.9197 20.2633 12.969 20.2348 13.0256C19.9002 13.6949 19.5785 12.5635 33.5529 26.6175Z" fill="#202020"/>
<path d="M51.2201 10.1921C54.8202 17.0342 54.771 17.0822 55.1607 17.0822H55.2671C55.3415 17.0817 55.4143 17.061 55.4778 17.0223C55.5413 16.9836 55.5931 16.9284 55.6277 16.8626C55.6623 16.7968 55.6784 16.7228 55.6742 16.6485C55.6701 16.5743 55.6458 16.5026 55.6041 16.441C55.0027 15.133 54.2855 13.8518 53.5929 12.6105C53.367 12.208 50.676 7.25304 50.1823 6.35565C50.1432 6.28205 50.083 6.2218 50.0094 6.18262C49.9358 6.14343 49.8522 6.12709 49.7693 6.13569C49.699 6.13607 49.63 6.15447 49.5689 6.18913C49.5078 6.22379 49.4566 6.27355 49.4202 6.33365C49.3838 6.39376 49.3635 6.46219 49.3611 6.53241C49.3587 6.60263 49.3744 6.67229 49.4066 6.73473C50.0033 7.88601 50.614 9.03963 51.2201 10.1921Z" fill="#202020"/>
<path d="M109.06 18.8336C109.68 18.5914 108.814 19.1144 113.272 0.992241C113.288 0.907632 113.281 0.820241 113.25 0.739687C113.22 0.659134 113.168 0.588542 113.1 0.535682C113.032 0.482822 112.95 0.449742 112.865 0.440086C112.779 0.430429 112.693 0.444569 112.615 0.48095C112.488 0.543348 112.391 0.653019 112.344 0.786321C110.755 6.5815 109.473 12.4564 108.502 18.3866C108.49 18.4586 108.497 18.5325 108.523 18.6008C108.548 18.6691 108.592 18.7292 108.649 18.7748C108.706 18.8205 108.774 18.85 108.847 18.8603C108.919 18.8707 108.993 18.8614 109.06 18.8336Z" fill="#202020"/>
<path d="M150.98 32.8209C152.271 31.1268 153.773 29.6051 155.451 28.293C155.451 28.293 168.738 16.6375 171.299 14.349C171.738 13.9711 171.311 13.1989 170.628 13.592C168.261 15.6289 154.58 27.749 154.58 27.749C152.93 29.0503 151.464 30.5705 150.224 32.2675C150.159 32.3797 150.138 32.5125 150.167 32.6392C150.195 32.7659 150.27 32.8772 150.377 32.9508C150.479 32.995 150.592 33.0063 150.7 32.983C150.808 32.9597 150.906 32.903 150.98 32.8209Z" fill="#202020"/>
<path d="M164.148 51.2448C163.994 51.3021 163.929 51.4636 163.883 51.6508C163.864 51.7234 163.866 51.7998 163.888 51.8715C163.91 51.9431 163.951 52.0074 164.007 52.0572C164.063 52.1071 164.132 52.1406 164.206 52.1541C164.279 52.1677 164.355 52.1607 164.426 52.134C172.805 48.9387 174.276 48.7187 178.065 47.4177C178.18 47.3604 178.272 47.266 178.326 47.1498C178.36 47.0709 178.371 46.9842 178.359 46.8993C178.347 46.8145 178.311 46.7346 178.257 46.6684C178.202 46.6022 178.131 46.5523 178.05 46.5241C177.969 46.496 177.881 46.4906 177.797 46.5086C174.489 47.4154 167.327 50.0502 164.148 51.2448Z" fill="#202020"/>
<path d="M201.229 91.2906C200.958 91.1842 164.77 89.8317 162.107 89.8866C162.035 89.8883 161.965 89.9087 161.904 89.9459C161.843 89.9831 161.792 90.0357 161.758 90.0984C161.723 90.1612 161.706 90.2319 161.707 90.3036C161.708 90.3752 161.728 90.4453 161.765 90.5067C161.797 90.5809 161.849 90.6446 161.915 90.6905C161.981 90.7365 162.059 90.7628 162.14 90.7665C165.593 90.8835 199.437 92.2442 201.047 92.2442C201.161 92.2421 201.27 92.2009 201.357 92.1276C201.444 92.0543 201.503 91.9532 201.525 91.8415C201.546 91.7297 201.529 91.6139 201.475 91.5136C201.421 91.4134 201.334 91.3346 201.229 91.2906Z" fill="#202020"/>
<path d="M187.751 115.462C187.653 115.345 188.209 115.625 178.535 111.164C179.068 110.21 179.62 109.263 180.19 108.325C180.233 108.209 180.236 108.082 180.199 107.964C180.162 107.847 180.087 107.745 179.986 107.674C179.885 107.603 179.763 107.568 179.64 107.573C179.517 107.579 179.399 107.625 179.305 107.705L175.309 109.786C167.938 106.343 161.163 103.381 154.628 100.744C151.964 99.6725 144.897 96.8832 144.874 96.868L144.864 96.8856C144.437 96.7615 144.397 96.854 144.305 97.0774C144.141 97.4834 144.165 97.4752 145.796 98.1398C139.344 110.619 133.277 120.687 126.111 135.382C125.043 135.88 124.173 136.722 123.64 137.772C122.918 139.603 124.744 139.614 116.62 104.326C113.526 90.887 113.767 91.6416 113.608 91.5106C113.538 91.4529 113.455 91.4153 113.365 91.4019C113.276 91.3885 113.185 91.3998 113.101 91.4345C113.101 91.4345 107.462 92.463 105.41 92.8877C105.234 91.5089 105.401 90.1081 105.895 88.809C105.976 88.8835 106.078 88.9288 106.187 88.9377C106.297 88.9466 106.405 88.9186 106.497 88.8582C108.443 87.7636 110.238 86.4205 111.838 84.8626C112.68 84.1367 113.395 83.275 113.953 82.3132C114.205 81.3998 114.086 80.4237 113.622 79.5976C112.838 77.3629 111.9 75.1854 110.814 73.0807C123.148 65.2888 133.954 55.3067 142.696 43.6271C143.019 43.6669 145.079 43.922 145.224 43.922C146.24 43.922 146.663 42.9474 146.056 42.3413C146.491 42.3273 147.166 42.2337 147.296 41.596C147.325 41.4188 147.299 41.2368 147.222 41.0748C147.144 40.9128 147.018 40.7786 146.862 40.6904C146.919 40.6001 146.958 40.4991 146.975 40.3935C146.993 40.2879 146.989 40.1799 146.965 40.0757C146.94 39.9716 146.895 39.8734 146.831 39.7871C146.768 39.7008 146.688 39.628 146.596 39.5731C145.832 39.1072 144.935 38.908 144.046 39.0068C144.15 38.9059 144.229 38.7806 144.273 38.6421C144.318 38.5036 144.328 38.3562 144.302 38.213C144.276 38.0697 144.215 37.9351 144.125 37.8211C144.034 37.7071 143.917 37.6173 143.783 37.5595C143.428 37.4465 143.043 37.4776 142.711 37.6461C141.527 38.0046 140.501 38.7546 139.8 39.7732C139.32 39.8703 129.707 44.2987 123.42 47.6941C117.207 51.0543 103.308 59.4865 97.9206 62.8713C97.848 62.6958 97.7638 62.4864 97.7158 62.3331C97.9732 62.2565 98.226 62.1651 98.4728 62.0593C100.843 60.6764 101.603 57.5817 101.092 55.051C101.056 54.8603 100.999 54.6766 100.958 54.4871C101.585 53.6454 102.096 52.7239 102.479 51.7469C102.531 51.2528 102.484 50.7532 102.342 50.2772C102.199 49.8012 101.963 49.3583 101.648 48.974C101.427 48.6881 101.304 48.3386 101.297 47.9772C101.379 47.26 102.584 46.5861 101.765 45.113C101.49 44.6063 101.121 44.1565 100.678 43.7874C99.1501 42.1809 97.2696 40.9513 95.1851 40.1955C93.2464 39.5029 91.1276 39.5029 89.1889 40.1955C88.3343 40.6587 87.509 41.1741 86.7178 41.7388C85.9307 42.1405 85.1037 42.4589 84.2503 42.6888C83.2703 43.0909 82.4103 43.7382 81.7527 44.5687C81.0952 45.3991 80.6624 46.3848 80.4958 47.4308C80.1085 49.5824 81.0387 51.6428 80.7801 53.7488C80.5753 55.4079 78.7443 56.4808 76.9799 57.3115C76.3953 57.5316 75.8324 57.8058 75.2986 58.1305C59.9529 52.9825 45.8907 48.8945 37.0993 46.6493C36.9832 46.5996 36.8523 46.5971 36.7343 46.6422C36.3115 45.8755 35.7543 45.1911 35.0893 44.6216C34.9461 44.5242 34.7809 44.4641 34.6086 44.447C34.4363 44.4298 34.2625 44.4561 34.1029 44.5234C33.5776 44.7936 33.6841 45.4699 33.8444 46.0373C32.9667 45.6573 31.9956 45.5473 31.0551 45.7214C30.9284 45.744 30.8096 45.7983 30.7097 45.8795C30.6099 45.9606 30.5323 46.0658 30.4843 46.1851C30.4364 46.3045 30.4195 46.4341 30.4355 46.5618C30.4514 46.6894 30.4996 46.8109 30.5754 46.9148C30.3924 46.9596 30.2279 47.0604 30.1049 47.2031C29.9818 47.3458 29.9064 47.5233 29.889 47.7109C29.8716 47.8985 29.9132 48.0869 30.0079 48.2497C30.1026 48.4126 30.2458 48.5419 30.4174 48.6195C30.2445 48.7698 30.1342 48.9796 30.1084 49.2073C30.0826 49.435 30.1432 49.664 30.2782 49.8492C30.9322 50.7922 31.8378 50.1089 34.7242 51.6873C34.7137 51.754 34.6903 51.8125 34.6798 51.8792C34.6798 53.1872 35.7889 53.8962 36.6793 54.4672C45.9059 60.3851 54.4925 65.8022 69.3901 73.9489C68.1616 76.6317 66.8044 79.2876 65.3384 81.8452C65.2874 81.9456 65.2692 82.0594 65.2864 82.1707C65.3036 82.282 65.3554 82.3851 65.4344 82.4653C69.0006 85.3758 72.9098 87.8387 77.0747 89.7989C77.7565 90.254 78.5311 90.5517 79.3422 90.6705C79.6694 90.6772 79.9877 90.564 80.2372 90.3523C80.3542 90.2154 80.4513 90.068 80.5566 89.9241C80.5906 89.9381 80.6257 89.9486 80.6596 89.9627C80.8035 93.1954 79.0625 95.7951 77.3625 98.5809C66.2042 101.002 54.9313 103.603 43.7835 106.34C43.6626 106.395 43.5656 106.491 43.5105 106.612C43.4554 106.732 43.446 106.869 43.484 106.996C46.3833 114.828 49.024 122.772 51.791 130.848C51.674 130.802 23.7005 119.786 18.5478 118.412C17.8938 117.728 16.7366 118.954 17.7428 119.196C27.1239 132.361 37.1403 149.826 50.3858 172.08C45.9371 171.215 41.3353 171.603 37.0946 173.202C33.7449 174.496 30.0477 177.473 30.6596 181.606C31.2598 185.701 35.7433 187.876 39.0942 189.345C43.8296 191.356 48.3574 193.825 52.6135 196.716C56.7573 199.674 59.9555 203.77 61.8214 208.507C61.7257 208.564 61.6529 208.652 61.6155 208.756C60.9533 210.794 59.5914 217.027 59.0719 219.381C58.7477 220.53 58.5192 221.704 58.3886 222.891C58.3898 223.011 58.4346 223.127 58.5149 223.217C58.5951 223.306 58.7052 223.363 58.8245 223.378C58.9439 223.392 59.0644 223.362 59.1636 223.294C59.2627 223.226 59.3337 223.125 59.3632 223.008C59.7083 221.851 59.9714 220.671 60.1507 219.477C60.3987 218.316 62.1467 210.768 62.3737 209.755C80.7427 216.946 100.554 217.957 119.994 213.791C121.166 213.687 122.307 213.361 123.356 212.83C123.624 213.604 127.13 223.195 127.13 223.195C127.177 223.328 127.276 223.437 127.403 223.497C127.531 223.558 127.678 223.565 127.811 223.517C127.944 223.469 128.052 223.371 128.112 223.243C128.173 223.115 128.18 222.969 128.132 222.836C128.132 222.836 124.573 213.207 124.083 212.039C124.449 211.484 124.654 210.839 124.677 210.174C125.301 206.639 126.656 203.273 128.655 200.291C130.655 197.309 133.254 194.778 136.288 192.858C143.878 188.046 149.248 186.819 157.668 183.903C160.03 183.195 162.334 182.306 164.559 181.243C168.036 179.543 171.322 176.041 169.336 172.16C167.405 168.382 161.797 166.881 157.415 167.09C156.698 167.131 155.984 167.216 155.278 167.343C166.954 150.749 175.926 133.53 187.753 116.109C187.829 116.018 187.87 115.903 187.869 115.785C187.869 115.667 187.827 115.552 187.751 115.462ZM146.747 98.6616C146.864 98.6616 157.229 102.798 162.457 105.06C164.943 106.137 172.853 109.683 174.283 110.317L127.683 134.581C132.803 124.246 146.672 98.7786 146.747 98.6616ZM123.565 141.445C123.63 141.386 123.682 141.314 123.717 141.233C123.752 141.152 123.77 141.065 123.768 140.977C123.768 140.929 123.754 140.88 123.748 140.832C124.379 138.736 124.607 137.302 126.497 136.356C128.543 135.331 178.135 109.469 178.253 109.407C175.389 114.549 172.897 119.89 170.798 125.389C170.213 126.821 152.758 168.526 151.844 170.323C150.871 171.99 148.845 172.793 147.14 173.731C132.273 181.932 117.729 189.717 103.479 198.563C111.153 179.641 117.539 160.952 123.568 141.446L123.565 141.445ZM93.1002 94.1115C93.1941 94.4081 93.351 94.6809 93.5602 94.9111C93.7694 95.1413 94.026 95.3236 94.3123 95.4453C92.6814 95.5988 91.039 95.5835 89.4112 95.3996C87.8839 95.0817 86.3734 94.6873 84.8856 94.218L85.4332 91.4322C88.0315 92.0329 90.6854 92.3608 93.3517 92.4103C93.0845 92.9347 92.9962 93.5322 93.1002 94.1115ZM97.607 93.7207C97.8853 93.6902 98.1618 93.6453 98.4354 93.5862C98.1915 93.8972 97.8802 94.1487 97.5249 94.3218C97.1696 94.4949 96.7796 94.585 96.3844 94.5853C95.8064 94.6555 94.7312 94.7877 94.3041 94.2718C94.1187 93.9851 94.0342 93.6448 94.0638 93.3047C94.0935 92.9646 94.2357 92.6441 94.4679 92.3939C95.5877 92.3712 96.7039 92.2593 97.8059 92.0593C97.8235 92.0593 97.841 92.0827 97.8586 92.0839C98.0868 92.1106 98.2961 92.2236 98.4436 92.3998L97.5076 92.5589C97.3629 92.5834 97.2327 92.6613 97.1428 92.7773C97.0529 92.8933 97.0098 93.0388 97.0222 93.185C97.0346 93.3312 97.1014 93.4675 97.2096 93.5667C97.3177 93.6659 97.4591 93.7209 97.6059 93.7207H97.607ZM93.1704 116.84C93.2617 116.48 93.56 115.587 93.8935 115.405C95.3384 108.907 96.3879 103.388 95.2834 97.0143C95.2569 96.8613 95.2922 96.704 95.3816 96.5771C95.471 96.4501 95.6072 96.3639 95.7602 96.3374C95.9132 96.3109 96.0704 96.3462 96.1974 96.4356C96.3243 96.525 96.4105 96.6612 96.437 96.8142C96.8536 99.5521 96.9837 102.326 96.8255 105.091C97.1985 104.863 97.5156 104.554 97.7531 104.187C97.9907 103.82 98.1427 103.404 98.1979 102.971C98.3361 100.866 98.2147 98.7531 97.8363 96.6785C97.821 96.6022 97.8211 96.5236 97.8365 96.4473C97.8519 96.371 97.8824 96.2986 97.9261 96.2342C97.9699 96.1698 98.0261 96.1149 98.0914 96.0725C98.1566 96.0301 98.2297 96.0012 98.3063 95.9874C98.3829 95.9736 98.4615 95.9753 98.5374 95.9923C98.6134 96.0092 98.6852 96.0412 98.7487 96.0863C98.8121 96.1313 98.8659 96.1886 98.907 96.2547C98.948 96.3209 98.9754 96.3945 98.9876 96.4714C99.3934 98.6697 99.5168 100.911 99.355 103.14C99.258 103.883 98.9589 104.584 98.4903 105.168C98.0217 105.752 97.4017 106.196 96.6979 106.451C96.3914 109.032 95.6906 112.576 95.1021 115.321C95.1346 115.33 95.1666 115.34 95.198 115.352C95.6929 115.549 95.7538 117.046 95.8661 117.552C98.068 127.687 99.6428 130.773 108.514 153.847C106.469 154.549 108.265 154.073 96.2288 158.652C93.9906 159.504 86.0381 162.332 84.3217 162.959C83.5858 161.37 79.8312 153.248 78.6659 150.752C80.2805 147.527 85.7198 134.98 86.4675 133.157C89.0965 126.751 85.6906 135.35 93.1704 116.84ZM99.2368 91.7516C100.07 91.5347 100.888 91.2663 101.688 90.9478L101.816 93.7406C100.825 94.0916 99.8359 94.4145 98.8531 94.6684C99.2851 94.3285 99.567 93.8331 99.6387 93.2881C99.7104 92.7431 99.5662 92.1917 99.2368 91.7516ZM108.846 154.716C110.499 159.01 112.171 163.299 113.902 167.565C113.96 167.831 109.086 181.478 102.302 199.085C96.2452 188.513 90.1857 175.596 84.6785 163.729C91.2586 161.55 106.83 155.641 108.846 154.716ZM112.388 92.5121C112.526 92.4683 112.667 92.432 112.81 92.4033C112.919 92.6929 113.004 92.9911 113.064 93.2948C117.118 111.34 120.81 125.838 122.658 140.551C122.505 141.034 122.383 141.521 122.248 142.007C122.129 138.837 121.726 135.684 121.046 132.586C117.857 116.791 113.836 107.571 108.61 99.4104C107.289 97.708 106.264 95.7952 105.578 93.7523C106.012 93.6786 111.97 92.6361 112.388 92.5121ZM106.219 98.8535C106.317 98.8072 106.423 98.7826 106.53 98.7812C106.638 98.7797 106.745 98.8016 106.843 98.8453C106.954 98.9023 107.044 98.9934 107.1 99.1053C107.156 99.2171 107.174 99.3439 107.152 99.467C107.131 99.5901 107.07 99.703 106.98 99.7892C106.89 99.8755 106.774 99.9305 106.65 99.9463C103.416 100.985 101.659 99.1086 101.043 95.8571C101.015 95.7046 101.048 95.5469 101.135 95.4188C101.223 95.2907 101.358 95.2025 101.51 95.1738C101.663 95.1451 101.82 95.1782 101.948 95.2657C102.077 95.3533 102.165 95.4882 102.193 95.6407C102.67 98.1573 103.785 99.6503 106.219 98.8535ZM104.375 92.7168C103.858 92.9508 103.342 93.172 102.826 93.3744C102.893 93.0234 102.89 93.2082 102.577 90.5828C103.258 90.2765 103.922 89.934 104.566 89.5567C104.307 90.5891 104.242 91.6607 104.375 92.7168ZM112.243 78.8886C112.655 79.6872 112.936 80.5468 113.076 81.4345C113.076 82.1763 112.156 82.9824 111.628 83.5546C110.171 85.1221 108.502 86.4787 106.67 87.5852C106.65 87.4682 105.813 83.0959 105.789 82.9766C105.829 82.8596 107.168 71.3936 106.5 67.9503C108.848 71.3514 110.777 75.0242 112.243 78.8886ZM142.991 38.7576C142.047 39.4935 142.016 39.3485 141.922 39.5766C141.886 39.6783 141.88 39.7883 141.905 39.8933C141.93 39.9983 141.984 40.0939 142.062 40.1686C142.126 40.2222 142.202 40.2605 142.283 40.2808C142.364 40.3011 142.449 40.3027 142.53 40.2856C143.098 40.1355 143.687 40.0848 144.271 40.1359C144.033 40.1675 143.798 40.2196 143.569 40.2915C143.442 40.3262 143.332 40.407 143.261 40.5182C143.19 40.6294 143.162 40.7631 143.184 40.8933C143.206 41.0235 143.276 41.141 143.379 41.2228C143.483 41.3047 143.613 41.3451 143.745 41.3363C144.263 41.2644 144.788 41.2644 145.306 41.3363C145.531 41.3421 145.38 41.3468 143.785 41.4065C142.873 41.2006 142.695 42.3881 143.434 42.4794C143.827 42.5511 144.215 42.652 144.594 42.7812C144.281 42.745 142.905 42.5706 142.52 42.5297C141.979 41.7165 141.356 40.9613 140.66 40.2763C141.289 39.5751 142.094 39.0539 142.991 38.7658V38.7576ZM132.941 44.0097C133.058 43.9536 139.698 40.8344 139.816 40.88C140.523 41.6298 141.153 42.4491 141.696 43.3253C141.534 43.5351 141.361 43.7362 141.178 43.9278C132.631 55.0852 122.178 64.6425 110.302 72.1576C109.371 70.4255 108.343 68.7481 107.221 67.1336C107.169 67.0589 107.099 66.9988 107.018 66.9593C106.936 66.9198 106.845 66.9022 106.755 66.9082C106.664 66.9142 106.577 66.9436 106.501 66.9936C106.425 67.0436 106.364 67.1124 106.322 67.1933C106.066 65.9544 105.494 64.8029 104.661 63.8506C103.828 62.8983 102.763 62.1777 101.57 61.7586C111.659 55.5834 122.093 49.201 132.941 44.0097ZM100.415 62.4665C104.562 62.8397 105.721 67.6145 105.75 70.385C105.75 72.2453 105.613 73.3522 105.096 79.8234C104.101 75.2814 102.792 70.8137 101.179 66.4527C100.86 65.2054 100.241 64.055 99.3761 63.1018L100.415 62.4665ZM97.7521 64.0355C98.0107 63.9582 97.9732 63.9594 98.5407 63.6131C99.5866 64.8466 100.32 66.3138 100.679 67.8906C101.125 69.2806 101.896 71.4006 102.963 75.2932C104.078 79.3629 104.959 83.4931 105.602 87.6636C102.27 90.0475 98.2958 91.3696 94.2 91.4568C86.6722 91.6323 81.5968 89.0501 81.048 89.1729C82.3348 87.0813 83.4687 84.8994 84.441 82.6443C86.94 76.8808 88.3833 70.7153 88.7022 64.4415C88.7361 64.3677 88.8472 64.1092 88.8695 64.053C96.9483 67.0599 89.1222 64.1384 94.3404 66.0935C94.3911 66.1143 94.4455 66.1248 94.5003 66.1242C94.5552 66.1236 94.6093 66.112 94.6596 66.0901C94.7098 66.0682 94.7552 66.0365 94.793 65.9967C94.8307 65.957 94.8601 65.91 94.8794 65.8587C94.8987 65.8074 94.9074 65.7527 94.9052 65.6979C94.9029 65.6431 94.8897 65.5893 94.8663 65.5398C94.8429 65.4902 94.8097 65.4458 94.7688 65.4093C94.7279 65.3728 94.6801 65.3448 94.6282 65.3271C89.9482 63.5721 90.6362 63.8494 90.3951 63.6833C90.3788 63.5571 90.3545 63.4321 90.3226 63.3089C90.3226 63.2726 90.3051 63.2457 90.3004 63.2118C91.5023 63.8997 92.8417 64.3128 94.2222 64.4216C95.0201 64.5841 95.8336 64.6575 96.6476 64.6403C96.8654 64.6337 97.0785 64.5754 97.2693 64.4702C97.4601 64.3651 97.6232 64.216 97.7451 64.0355H97.7521ZM83.9274 93.9079C83.087 93.641 82.2712 93.302 81.4891 92.8947C81.7129 92.0669 81.78 91.2047 81.6868 90.3523C82.5702 90.6623 83.4676 90.9303 84.3778 91.1654C83.9098 93.3557 83.863 93.3966 83.9274 93.9079ZM85.439 55.9636C85.8602 54.4871 88.2073 55.6969 88.3231 56.8446C88.3152 57.1679 88.3834 57.4885 88.522 57.7806C88.7185 58.0591 88.8894 57.9971 89.3164 58.506C89.651 58.9038 90.2524 59.6211 90.4338 59.1343C90.6054 58.4341 90.5416 57.6969 90.2524 57.0365C90.2791 56.4935 90.4881 55.9754 90.8456 55.5658C91.7348 54.2262 90.8187 52.5051 91.7196 51.231C92.7094 49.9791 93.5284 50.3406 94.8529 49.1495C95.0757 48.9454 95.2385 48.6843 95.3239 48.3944C95.4092 48.1045 95.4139 47.7968 95.3372 47.5045C96.2412 48.0068 97.0706 48.633 97.8013 49.3648C97.8492 49.4397 97.896 49.5158 97.9417 49.5918H97.9264C97.5716 49.6421 97.2499 49.8278 97.0291 50.1101C96.7377 50.4822 97.2631 51.0461 97.6141 50.7922C97.7363 50.6789 97.8852 50.5984 98.0469 50.5582C98.1884 50.5265 98.3357 50.5326 98.474 50.5758H98.4869C98.6308 50.8589 98.7712 51.1444 98.8975 51.4369C98.8184 51.342 98.7162 51.269 98.6009 51.2247C98.4855 51.1805 98.3607 51.1665 98.2384 51.1841C98.1161 51.2017 98.0003 51.2503 97.9021 51.3252C97.8039 51.4002 97.7265 51.4991 97.6772 51.6124C97.6064 51.9059 97.6224 52.2137 97.7234 52.4983C97.8244 52.7829 98.0059 53.032 98.2459 53.2153C98.3492 53.3087 98.4791 53.3674 98.6175 53.3832C98.7559 53.3989 98.8958 53.371 99.0175 53.3032C99.1392 53.2355 99.2366 53.1313 99.2961 53.0054C99.3556 52.8795 99.3741 52.7381 99.3492 52.601C100.119 54.8591 100.527 57.7058 99.3574 59.7135C99.1007 60.1652 98.7499 60.5565 98.3288 60.8609C97.9077 61.1653 97.4262 61.3757 96.9167 61.4778C96.8441 61.4968 96.776 61.5303 96.7166 61.5762C96.6571 61.6222 96.6076 61.6797 96.571 61.7452C96.5344 61.8108 96.5114 61.8831 96.5035 61.9578C96.4955 62.0325 96.5028 62.108 96.5248 62.1798C96.7377 62.8046 96.8758 63.1521 96.9928 63.5008C96.7822 63.6903 96.0884 63.6283 95.7058 63.5932C93.7486 63.5574 91.8302 63.0415 90.119 62.0909C89.9482 61.995 90.05 62.2243 89.8534 61.5141C89.742 60.9701 89.5854 60.4363 89.3854 59.9182C89.3223 59.7825 89.0918 59.0407 88.5664 59.3707C88.1048 59.4384 87.6335 59.3591 87.2194 59.1441C86.8053 58.929 86.4694 58.5892 86.2592 58.1726C85.9661 57.8891 85.7403 57.5435 85.5984 57.1612C85.4564 56.7789 85.402 56.3697 85.439 55.9636ZM87.469 66.875C86.9529 71.8693 85.7097 76.7612 83.7788 81.3959C83.9461 75.6489 83.6033 73.0339 83.6454 70.7489C85.3622 69.9851 86.7277 68.6017 87.469 66.875ZM34.9723 50.6366C34.1277 50.1902 33.2257 49.8618 32.2918 49.6608C31.9461 49.5976 31.6072 49.5016 31.2797 49.3742C31.7998 49.3341 32.3229 49.3896 32.823 49.538C32.9182 49.558 33.0172 49.5509 33.1086 49.5174C33.2 49.4839 33.2801 49.4254 33.3399 49.3486C33.3997 49.2717 33.4366 49.1796 33.4466 49.0828C33.4566 48.986 33.4391 48.8883 33.3963 48.8009C33.3854 48.7234 33.3525 48.6507 33.3015 48.5913C33.2504 48.532 33.1834 48.4886 33.1084 48.4663C32.8571 48.3907 32.6006 48.3336 32.3409 48.2954L31.1803 47.9093C31.4382 47.8742 31.7007 47.8966 31.949 47.9749C32.3746 48.056 32.7941 48.1666 33.2044 48.306C33.8888 48.54 34.0561 47.4472 33.5367 47.2612C33.1147 47.1424 32.7148 46.9559 32.3526 46.7089C33.1093 46.796 33.8263 47.0935 34.4224 47.5677C34.4987 47.6687 34.6098 47.7379 34.7342 47.7619C34.8585 47.7858 34.9874 47.7629 35.0958 47.6975C35.2043 47.632 35.2847 47.5288 35.3215 47.4076C35.3583 47.2864 35.3489 47.1559 35.2952 47.0412C35.108 46.5976 34.9535 46.1408 34.833 45.6746C35.347 46.2929 35.7831 46.9719 36.1317 47.6964L35.4578 49.4514C35.2625 49.8319 35.1001 50.2284 34.9723 50.6366ZM80.587 87.8356C80.3062 88.3153 79.7833 89.5227 79.3328 89.621C78.8426 89.7287 77.4421 88.8921 76.8536 88.6137C73.3328 86.9208 70.0143 84.8359 66.9612 82.3986C66.5307 82.1061 66.4417 81.9868 66.4219 82.0347C67.8692 79.5908 69.1588 77.0569 70.2829 74.4485C70.3729 74.4964 70.4619 74.5491 70.5531 74.5959C70.6746 74.6575 70.8155 74.6687 70.9451 74.6271C71.0748 74.5855 71.1828 74.4944 71.2458 74.3736C71.3083 74.2563 71.3218 74.1189 71.2832 73.9917C71.2445 73.8645 71.157 73.7578 71.0398 73.695C58.2868 66.8645 49.3211 61.4556 37.1637 53.6704C36.0662 52.9684 35.4683 52.4946 35.8264 51.4474C36.1986 50.1907 36.6789 48.9686 37.2619 47.7947C37.3789 47.8146 49.7692 51.2825 51.1534 51.6861C61.3663 54.59 67.7674 56.7265 74.2024 58.8804C73.7045 59.1663 73.2803 59.5647 72.9638 60.0437C72.6473 60.5228 72.4472 61.0692 72.3795 61.6393C72.3163 63.0515 73.7051 64.6684 72.7305 65.8747C72.0694 66.7124 70.6245 66.5767 69.747 67.2787C69.4708 67.572 69.2673 67.9261 69.1529 68.3124C69.0385 68.6987 69.0164 69.1064 69.0883 69.5029C69.1602 69.8993 69.3242 70.2733 69.567 70.5948C69.8099 70.9162 70.1248 71.1762 70.4864 71.3538C70.5019 71.3664 70.5218 71.3723 70.5417 71.3702C70.5615 71.3681 70.5797 71.3582 70.5923 71.3427C70.6049 71.3272 70.6108 71.3073 70.6087 71.2875C70.6066 71.2676 70.5967 71.2494 70.5812 71.2368C70.1518 70.7489 70.5812 69.8925 71.1966 69.676C71.8691 69.5341 72.5694 69.6112 73.195 69.896C75.4895 70.7783 77.9113 71.2852 80.3671 71.3971C81.1434 71.4218 81.9187 71.3227 82.6638 71.1034C82.6486 74.7222 83.1096 78.2404 82.7176 83.7687C82.0367 85.2066 81.3218 86.5814 80.587 87.8356ZM78.4916 99.7556C79.7937 99.9609 81.1271 99.7232 82.2782 99.0806C83.4292 98.4381 84.3313 97.4278 84.84 96.2116C84.9071 96.0755 85.0243 95.9708 85.1671 95.9196C85.3099 95.8684 85.467 95.8746 85.6053 95.937C85.7436 95.9994 85.8522 96.113 85.9083 96.254C85.9644 96.3949 85.9635 96.5522 85.9059 96.6925C85.292 98.1262 84.2226 99.3175 82.8632 100.082C81.5037 100.846 79.9302 101.141 78.3863 100.921C78.3094 100.914 78.2347 100.892 78.1664 100.856C78.0981 100.82 78.0375 100.772 77.988 100.712C77.9386 100.653 77.9013 100.585 77.8783 100.511C77.8553 100.437 77.847 100.36 77.8539 100.283C77.8608 100.206 77.8828 100.132 77.9186 100.063C77.9544 99.995 78.0033 99.9344 78.0625 99.885C78.1217 99.8356 78.1901 99.7983 78.2637 99.7753C78.3373 99.7523 78.4148 99.744 78.4916 99.7509V99.7556ZM45.2928 109.028C44.6365 107.247 44.5908 107.345 44.5908 107.207C45.1922 106.965 75.3677 100.077 76.6711 99.793C70.4595 110.666 68.1967 124.421 66.6687 136.868C66.0241 136.602 56.8957 132.9 52.9154 131.31C50.7041 123.962 48.1804 116.86 45.2928 109.028ZM19.3551 119.541C19.8231 119.705 70.614 139.568 72.2953 140.439C73.8443 141.843 89.2872 178.177 100.445 198.12C99.127 197.353 97.7589 196.676 96.3505 196.091C93.0967 194.519 56.2967 177.9 54.9629 177.204C54.2574 176.772 31.5617 137.082 19.3551 119.541ZM161.689 168.458C163.887 168.854 165.92 169.884 167.539 171.422C168.246 172.126 168.69 173.051 168.797 174.043C168.905 175.035 168.671 176.034 168.132 176.874C166.924 178.467 165.307 179.704 163.452 180.453C152.861 184.857 145.888 185.561 136.223 191.485C132.971 193.507 130.17 196.176 127.993 199.327C125.816 202.477 124.311 206.042 123.569 209.799C123.514 210.255 123.415 210.705 123.273 211.142C123.136 211.423 122.928 211.664 122.671 211.842C122.413 212.02 122.114 212.128 121.803 212.157C113.14 214.161 104.273 215.148 95.3817 215.101C84.2892 214.958 73.3124 212.826 62.9727 208.807V208.791L62.9645 208.76C60.2735 199.249 51.0878 193.763 44.4142 190.463C38.9152 187.748 36.1598 187.083 33.319 184.308C32.6691 183.667 32.1986 182.867 31.9547 181.987C31.7108 181.107 31.702 180.179 31.9291 179.294C32.648 177.446 34.0364 175.935 35.8182 175.063C39.9026 172.723 45.6193 172.145 51.1826 173.425C51.7267 174.34 52.273 175.259 52.8206 176.145C53.1464 176.785 53.5475 177.385 54.0152 177.93C54.3638 178.192 54.7479 178.404 55.1559 178.557C97.0326 197.585 96.7178 197.323 100.953 199.725C101.834 200.225 102.105 200.723 103.152 200.064C104.946 198.936 111.648 194.349 143.228 177.115C148.72 174.118 148.242 174.435 149.709 173.564C149.654 173.662 149.591 173.756 149.521 173.845C149.236 174.348 149.659 174.823 150.158 174.313L150.175 174.322C150.907 173.436 151.59 172.511 152.22 171.55C152.266 171.524 152.306 171.489 152.337 171.446C152.386 171.378 153.864 169.34 154.488 168.468C156.864 167.989 159.312 167.985 161.689 168.458ZM185.674 117.38C174.104 134.808 165.693 150.433 154.786 166.286C176.122 115.451 175.572 116.648 178.043 112.086C187.403 116.385 186.493 115.914 186.611 116.023C186.351 116.509 186.037 116.965 185.676 117.382L185.674 117.38Z" fill="#202020"/>
</svg>
